<?xml version="1.0" encoding="utf-8"?>
<!-- Generator: Adobe Illustrator 24.1.1, SVG Export Plug-In . SVG Version: 6.00 Build 0)  -->
<svg version="1.1" xmlns="http://www.w3.org/2000/svg" xmlns:xlink="http://www.w3.org/1999/xlink" x="0px" y="0px"
	 viewBox="0 0 1000 1000" style="enable-background:new 0 0 1000 1000;" xml:space="preserve">
<style type="text/css">
	.st0{fill:#34A2A5;}
	.st1{clip-path:url(#SVGID_2_);}
	.st2{fill:#D3B998;}
	.st3{fill:#190201;}
	.st4{opacity:0.49;fill:#AD8E6D;}
	.st5{fill:#350A0A;}
	.st6{fill:#A210C6;}
	.st7{fill:#B72C2C;}
	.st8{fill:#CCA012;}
	.st9{fill:#379FB7;}
	.st10{fill:#FFBC00;}
	.st11{fill:#E2A100;}
	.st12{opacity:0.24;clip-path:url(#SVGID_2_);fill:#AD8E6D;}
	.st13{clip-path:url(#SVGID_2_);fill:#825F3D;}
</style>
<g id="Fondo">
	<path class="st0" d="M178.2,912.9C80.9,875.6,69.5,622.1,120.3,520c14.1-28.4,33.2-53,44.6-83.2c27.8-73.5,6.2-167.6,42.1-235.4
		c21.6-40.8,60.6-63.4,99.6-71.1S394.9,102.3,434,97c67-9,115-18,179-18c73,0,104,23,117.6,35.8c42.2,39.9,83.7,91.6,105.8,156.3
		c36.8,107.6,69.2,222.7,58.6,338.7C884.5,725.9,819.2,866,725.9,883.5c-31.3,5.8-63.4-1.5-94.7,3.8c-59.1,9.9-100.7-3-160.1-9.9
		c-38-4.4-84.9,41.4-116,13.9c-30.2-26.7-67-14.7-101.4,2.6C244.7,898.4,202,922,178.2,912.9z"/>
</g>
<g id="Ana">
	<g>
		<defs>
			<path id="SVGID_1_" d="M176.2,913.9C78.9,876.6,67.5,623.1,118.3,521c14.1-28.4,33.2-53,44.6-83.2
				c27.8-73.5,6.2-167.6,42.1-235.4c21.6-40.8,60.6-63.4,99.6-71.1S392.9,103.3,432,98c67-9,115-18,179-18c73,0,104,23,117.6,35.8
				c42.2,39.9,83.7,91.6,105.8,156.3c36.8,107.6,69.2,222.7,58.6,338.7C882.5,726.9,817.2,867,723.9,884.5
				c-31.3,5.8-63.4-1.5-94.7,3.8c-59.1,9.9-100.7-1-160.1-7.9c-38-4.4-84.9,39.4-116,11.9c-30.2-26.7-67-14.7-101.4,2.6
				C242.7,899.4,200,923,176.2,913.9z"/>
		</defs>
		<clipPath id="SVGID_2_">
			<use xlink:href="#SVGID_1_"  style="overflow:visible;"/>
		</clipPath>
		<g class="st1">
			<g>
				<path class="st2" d="M599.1,388c17.6-10.7,33.4,8.4,26.5,36.7s-35.8,29.9-38.3,30.8c-1.3,12.8-26.7,109.7-104.8,116.1
					c-22.9,1.5-52.7,3.2-73.3-5.6c-16.1-6.9-53.4-24-66.9-112.2c-11.8,2.9-28.3-7.7-29.8-29.8c-1.6-23.7,3.9-45.2,29.7-34.9
					c-3.8-30.4-25.4-149.9,134.6-147.5C616.2,237.7,599.3,365.8,599.1,388z"/>
				<path class="st2" d="M488,570.2c-3.9,28.5-3.7,36.2,7.9,54.6c-37.1,12.1-71.9,14.8-98.7-0.7c5.5-15.5,10.8-38.6,12-58.2
					C420.3,569.9,462.1,573,488,570.2z"/>
			</g>
			<g>
				<path class="st3" d="M504.3,363.2l2.5-12.9c0.1-0.4,0.3-0.7,0.7-0.8c5.2-1.6,42.7-11.9,64.7,9.8c0.3,0.3,0.4,0.7,0.3,1.1
					c-0.7,2.1-1.1,3.1-4,2.9c-15.3-1-43.3-6.3-62.9,1.1C505,364.7,504.2,364,504.3,363.2z"/>
				<path class="st3" d="M430.6,362.7l-3.2-12.7c-0.1-0.4-0.4-0.7-0.8-0.8c-5.3-1.3-43.3-9.5-64.1,13.4c-0.3,0.3-0.3,0.7-0.2,1.1
					c0.8,2.1,1.3,3,4.1,2.7c15.2-1.8,42.8-8.6,62.8-2.4C430.1,364.2,430.8,363.5,430.6,362.7z"/>
				<circle cx="534.6" cy="409.8" r="22.5"/>
				<circle cx="390.3" cy="409.9" r="22.5"/>
				<path class="st4" d="M462.4,476.6l6.1,0.1c2.7,0.1,4.8-2.4,4.3-5.1l-4.1-21.4l-1.4-7.1c-0.9-4.5-7.3-4.6-8.3-0.2l-1.7,7l-5,21.2
					c-0.6,2.6,1.3,5.2,4.1,5.2L462.4,476.6z"/>
				<path d="M461.7,527.4c10.2-0.3,16-5,16.3-5.3c0.5-0.5,0.6-1.3,0.1-1.8c-0.5-0.5-1.3-0.6-1.8-0.2l0,0c-0.5,0.4-12.2,9.9-32.7,0.8
					c-0.6-0.3-1.4,0-1.7,0.6c-0.3,0.6,0,1.4,0.6,1.7C450.1,526.5,456.5,527.5,461.7,527.4z"/>
			</g>
		</g>
		<g class="st1">
			<path class="st3" d="M487.6,571.4c-0.9-0.8,75.5-8,99.7-115.9c0,0,34.7-2.4,39.7-39.3c0,0,1.9-40.6-28-28.3c0,0-5.9,1.9-10.9,7.1
				c0,0-0.4-15.3,3.6-23.1c3.4-6.5,10.9-11.3,6.6-22.9c-1.6-4.2-4.5-7.8-8.2-10.4c-5.4-3.8-6.1-6.7-5.7-15.8
				c0.5-11.1,4.3-27.4-13.9-40.5c-18.2-13.1-26-15.4-46.2-8.1c-5.3-5.8-7.6-29.6-45.9-27.7c-29.8,0.8-40.8,2-48.7,23.5
				c-7.9,21.5-3.4,29-24.5,38.1c-19.1,7.8-35.1,18.5-35.1,54.9c0,4.2-0.8,8.3-2.3,12.2c-6.2,16.2-7.5,31.3-20.4,47
				c-4.7,5.8-6.8,13.3-5.6,20.6c1.4,8.3,4.2,14.6,5.4,19.1c1.9,6.8-0.3,17.4-0.3,17.4s11.1,65.7,61.9,86.4
				c1.1,40.8-32.9,103-32.9,103c-6.5,9.5-35,3.4-35.5,3.2c-2.8-1.3-13.4-7.3-21.9-23.6c-0.2-0.5-0.6-0.9-1-1.2
				c-7.9-5.4-24.2-15.1-20-40.1l7.8-45.3c-18-17.4-19.5-44.3-16.8-65.9c2.8-22.2,3.2-36.7-9.4-64.4c-12.6-27.5-18.1-41.8-12.8-57.9
				c4-14.2,24.2-22.4,24.9-26.6c1.3-7.4-9.5-44.7-6.5-59c0.3-1.6,0.2-3.3-0.2-5c-2.9-10.8-6.4-36.7,15.1-55.2
				c0.1-0.1,0.3-0.2,0.4-0.4c9-10.6,16.8-35.9,38.5-41.7c0.1,0,0.2-0.1,0.4-0.1c21.6-3.8,47.8,12.6,58.3,9.6c0.3-0.1,0.7-0.3,1-0.5
				c10-7.9,24.3-45.4,56.3-42.1c30.1,3.1,70.8,19.8,73.8,46.8c0.3,2.3,2.9,3.6,4.9,2.3c12.5-8.2,44.8-18.3,72.8,13.1
				c33.4,37.4,14.9,44.7,21.9,53c6.8,8.1,23.4,19.1,26.2,29c0.2,0.9,0.6,1.8,0.9,2.6c4.8,14.2,4.4,43.1-6.4,60.9
				c5.4,16.4-2.4,41.3-7.4,46.6c3.8,13.5-2.5,31.6-19.6,39.1c-3.1,1.6-11.7,28.2,1.4,41.4c10.2,18.1,22.3,37.7,16.1,58.3
				s-27.8,40.8-25.9,49.2c1.9,8.4,4.3,28.6,4.3,39.9c0,27.6-21.6,42.3-48.8,41.4c-7.5-0.3-25.9,10-40.9-0.9
				C471.4,634,487.6,571.4,487.6,571.4z"/>
			<g>
				<path class="st5" d="M336.7,563.5c4.8-11.2,4.5-15.7-2.9-43.6c-2.9-10.9,8.7-32.7,12.6-39.9c1.5-2.8,1.5-2.8,1.1-3.1
					c-0.4-0.3-0.4-0.3-3.6,4.3l0.7,0.5c-4.6,8.7-14.3,28.2-11.6,38.5c7.3,27.6,7.6,32,2.9,43L336.7,563.5z"/>
				<path class="st5" d="M324.9,245.8l0.8,0c-0.7-12.2,4.1-22,14.4-29.3c10.3-7.2,23.9-10.3,33.4-11.6c23.8-3.2,23.9-9.3,23.9-9.6
					l-0.9,0l0.4,0l-0.4,0c0,0.1-0.4,5.7-23.2,8.7C358.3,206.1,323.1,214.3,324.9,245.8z"/>
				<path class="st5" d="M516.1,210.2c5.7-5.1,18.2-8,18.3-8.1l-0.2-0.8c-0.5,0.1-12.9,3-18.7,8.3L516.1,210.2z"/>
				<path class="st3" d="M626.4,436.6c0,0-6.7,21.5-4.7,31.6"/>
			</g>
		</g>
		<g class="st1">
			<path class="st6" d="M626.4,404.2c1.1-0.2,2-0.7,2.6-1.6c1-1.5-2.7-3.7-4.3-6.5l-0.4,1.4c0.9,1.7,3,2.9,2.7,3.4
				c-0.8,1.3-5.3-0.2-8.2-1.1L618,400C619.1,400.3,623.3,404.9,626.4,404.2z"/>
			<circle class="st7" cx="612.7" cy="435.7" r="2.6"/>
			<circle class="st7" cx="605.2" cy="441.8" r="2.6"/>
			<g>
				<circle class="st8" cx="595.2" cy="447.2" r="6"/>
				<circle class="st9" cx="595.2" cy="447.2" r="4.3"/>
			</g>
		</g>
		<g class="st1">
			<g>
				<path class="st2" d="M585.1,807c0,0-5,107.4-6.8,113.4c-10.8,5.4-57.8,4.2-71.8,4.5c-6.2-8.3-3.5-113.4-3.5-113.4
					S538.5,816.8,585.1,807z"/>
				<path class="st2" d="M276.3,801.5c0,0,9.3,112.8,11,119.1c8.6,5.1,44.4,1.5,55.2,1.2c4.3-9.1,0.4-116.2,0.4-116.2
					S310.5,815.9,276.3,801.5z"/>
			</g>
			<g>
				<path class="st10" d="M342.2,910.8c0,0,2.9-82.6,0.8-99.6c-23.1,7.4-53.5,1.4-68.3-5c-4.5-6.7,13.1-122.9,19.4-142.6
					c6.4-19.7,99.9-40.2,99.9-40.2s21.3,12.1,44.8,12.1c14.1,0,55.5-10.6,55.5-10.6s69.5,16.7,77,36.1
					c7.5,19.4,31.4,134.4,27.3,141.3c-14.5,7.2-60.8,15.3-84.3,9.2c-1.2,17.1,0.2,99.6,0.2,99.6s2.1,18.6-85,18.5
					C352.7,929.5,342.2,910.8,342.2,910.8z"/>
				<path class="st11" d="M512.3,743.9c0,0,3,46.7,1.9,68"/>
				<path class="st11" d="M341.2,744.4c0,0-0.4,46.8,1.9,68"/>
				<path class="st11" d="M489.6,616c-4.7,2.2-36.7,15.8-88.5-1.8c-0.5-0.2-0.9,0.1-1.1,0.5l-3.4,8.9c-0.1,0.4,0,0.8,0.3,1.1
					c16.9,11.1,63.4,17.1,98.2,0.6c0.4-0.2,0.6-0.8,0.4-1.2c-2-4-4-6.7-4.9-7.8C490.4,615.9,489.9,615.8,489.6,616z"/>
			</g>
		</g>
		<path class="st12" d="M479.6,572c-2.7,2.2-49.5,2.2-60-3.1c18.2,2.7,30.1,2.7,30.1,2.7S471.8,572.5,479.6,572z"/>
		<circle class="st13" cx="564.5" cy="439.5" r="4.5"/>
	</g>
</g>
</svg>
